<?xml version="1.0" encoding="UTF-8"?>
<svg xmlns="http://www.w3.org/2000/svg" xmlns:xlink="http://www.w3.org/1999/xlink" width="810pt" height="809.999993pt" viewBox="0 0 810 809.999993" version="1.2">
<defs>
<clipPath id="clip1">
  <path d="M 407 25.910156 L 416 25.910156 L 416 698 L 407 698 Z M 407 25.910156 "/>
</clipPath>
<clipPath id="clip2">
  <path d="M 19 277 L 685 277 L 685 756.222656 L 19 756.222656 Z M 19 277 "/>
</clipPath>
</defs>
<g id="surface1">
<g clip-path="url(#clip1)" clip-rule="nonzero">
<path style=" stroke:none;fill-rule:nonzero;fill:rgb(34.118652%,22.349548%,38.038635%);fill-opacity:1;" d="M 411.429688 697.492188 C 409.238281 697.492188 407.460938 695.71875 407.460938 693.523438 L 407.460938 25.921875 L 415.394531 25.921875 L 415.394531 693.523438 C 415.394531 695.71875 413.617188 697.492188 411.429688 697.492188 "/>
</g>
<path style=" stroke:none;fill-rule:nonzero;fill:rgb(55.688477%,56.079102%,63.139343%);fill-opacity:1;" d="M 457.542969 118.5 C 445.605469 118.5 435.894531 108.792969 435.894531 96.859375 L 435.894531 94.710938 C 435.894531 86.773438 429.433594 80.316406 421.492188 80.316406 L 415.398438 80.316406 L 415.398438 76.351562 L 421.492188 76.351562 C 431.621094 76.351562 439.863281 84.589844 439.863281 94.710938 L 439.863281 96.859375 C 439.863281 106.601562 447.789062 114.53125 457.542969 114.53125 C 467.292969 114.53125 475.226562 106.601562 475.226562 96.859375 L 475.226562 88.050781 L 479.191406 88.050781 L 479.191406 96.859375 C 479.191406 108.792969 469.476562 118.5 457.542969 118.5 "/>
<path style=" stroke:none;fill-rule:nonzero;fill:rgb(55.688477%,56.079102%,63.139343%);fill-opacity:1;" d="M 365.316406 118.5 C 377.257812 118.5 386.96875 108.792969 386.96875 96.859375 L 386.96875 94.710938 C 386.96875 86.773438 393.425781 80.316406 401.375 80.316406 L 407.460938 80.316406 L 407.460938 76.351562 L 401.375 76.351562 C 391.242188 76.351562 383 84.589844 383 94.710938 L 383 96.859375 C 383 106.601562 375.070312 114.53125 365.316406 114.53125 C 355.566406 114.53125 347.636719 106.601562 347.636719 96.859375 L 347.636719 88.050781 L 343.667969 88.050781 L 343.667969 96.859375 C 343.667969 108.792969 353.378906 118.5 365.316406 118.5 "/>
<path style=" stroke:none;fill-rule:nonzero;fill:rgb(99.609375%,95.289612%,94.119263%);fill-opacity:1;" d="M 478.199219 232.769531 C 477.511719 232.769531 477.132812 232.75 477.132812 232.75 C 477.132812 232.75 476.75 232.769531 476.070312 232.769531 C 470.648438 232.769531 446.207031 231.40625 440.058594 207.121094 C 433.125 179.761719 437.890625 107.816406 437.890625 107.816406 C 437.890625 107.816406 438.25 107.816406 438.878906 107.820312 C 442.652344 114.207031 449.601562 118.496094 457.542969 118.496094 C 469.289062 118.496094 478.886719 109.097656 479.183594 97.425781 L 482.714844 97.425781 C 486.179688 97.425781 489.304688 99.507812 490.648438 102.699219 C 491.398438 104.476562 492.171875 106.148438 492.640625 106.6875 C 493.53125 107.714844 507.8125 107.820312 513.78125 107.820312 C 515.371094 107.820312 516.375 107.816406 516.375 107.816406 C 516.375 107.816406 521.136719 179.761719 514.210938 207.121094 C 508.054688 231.40625 483.609375 232.769531 478.199219 232.769531 M 457.542969 114.535156 C 451.925781 114.535156 446.917969 111.902344 443.671875 107.8125 C 450.453125 107.765625 460.871094 107.5625 461.628906 106.6875 C 462.09375 106.148438 462.867188 104.476562 463.617188 102.699219 C 464.964844 99.507812 468.082031 97.425781 471.546875 97.425781 L 475.214844 97.425781 C 474.914062 106.90625 467.101562 114.535156 457.542969 114.535156 "/>
<path style=" stroke:none;fill-rule:nonzero;fill:rgb(89.7995%,85.488892%,86.268616%);fill-opacity:1;" d="M 457.542969 118.496094 C 449.601562 118.496094 442.652344 114.207031 438.878906 107.820312 C 439.300781 107.820312 439.84375 107.820312 440.484375 107.820312 C 441.386719 107.820312 442.472656 107.820312 443.671875 107.8125 C 446.917969 111.902344 451.925781 114.535156 457.542969 114.535156 C 467.101562 114.535156 474.914062 106.90625 475.214844 97.425781 L 479.183594 97.425781 C 478.886719 109.097656 469.289062 118.496094 457.542969 118.496094 "/>
<path style=" stroke:none;fill-rule:nonzero;fill:rgb(79.60968%,25.878906%,32.159424%);fill-opacity:1;" d="M 511.773438 153.769531 L 442.476562 153.769531 C 442.476562 153.769531 440.109375 183.800781 444.527344 203.117188 C 446.875 213.375 453.269531 219.3125 460.160156 222.863281 C 470.761719 228.324219 483.496094 228.324219 494.097656 222.863281 C 500.992188 219.3125 507.382812 213.375 509.730469 203.117188 C 514.152344 183.800781 511.773438 153.769531 511.773438 153.769531 "/>
<path style=" stroke:none;fill-rule:nonzero;fill:rgb(55.688477%,56.079102%,63.139343%);fill-opacity:1;" d="M 479.1875 102.398438 C 479.1875 101.261719 478.265625 100.339844 477.132812 100.339844 C 475.992188 100.339844 475.070312 101.261719 475.070312 102.398438 C 475.070312 103.535156 475.992188 104.457031 477.132812 104.457031 C 478.265625 104.457031 479.1875 103.535156 479.1875 102.398438 "/>
<path style=" stroke:none;fill-rule:nonzero;fill:rgb(55.688477%,56.079102%,63.139343%);fill-opacity:1;" d="M 479.191406 102.394531 L 479.191406 95.503906 C 479.191406 95.503906 475.226562 94.902344 475.226562 95.878906 C 475.226562 96.855469 475.074219 102.394531 475.074219 102.394531 L 479.191406 102.394531 "/>
<path style=" stroke:none;fill-rule:nonzero;fill:rgb(79.60968%,25.878906%,32.159424%);fill-opacity:1;" d="M 37.269531 279.792969 C 37.269531 279.792969 44.960938 252.199219 185.363281 241.78125 C 325.765625 231.367188 351.683594 237.289062 380.945312 332.34375 C 410.203125 427.402344 490.691406 608.660156 524.410156 664.515625 C 442.871094 708.117188 194.558594 693.414062 194.558594 693.414062 C 194.558594 693.414062 79.296875 434.199219 79.296875 430.523438 C 79.296875 426.84375 37.269531 279.792969 37.269531 279.792969 "/>
<g clip-path="url(#clip2)" clip-rule="nonzero">
<path style=" stroke:none;fill-rule:nonzero;fill:rgb(64.709473%,18.429565%,25.099182%);fill-opacity:1;" d="M 684.429688 756.222656 L 181.378906 756.222656 C 181.378906 756.222656 51.703125 490.578125 25.953125 374.761719 C 0.203125 258.945312 60.902344 265.070312 77.457031 298.164062 C 94.011719 331.253906 130.183594 484.449219 160.222656 557.984375 C 190.265625 631.519531 233.117188 697.085938 233.117188 697.085938 L 607.207031 711.292969 C 607.207031 711.292969 666.648438 714.859375 684.429688 756.222656 "/>
</g>
<path style=" stroke:none;fill-rule:nonzero;fill:rgb(34.118652%,22.349548%,38.038635%);fill-opacity:1;" d="M 329.699219 369.546875 C 329.699219 369.546875 347.867188 359.746094 346.539062 334.929688 C 345.210938 310.109375 325.589844 298.464844 318.84375 273.035156 C 312.097656 247.601562 311.179688 213.59375 291.867188 196.4375 C 272.554688 179.277344 261.210938 180.8125 261.210938 180.8125 C 261.210938 180.8125 226.265625 162.660156 193.769531 180.773438 C 161.277344 198.886719 160.664062 236.265625 167.40625 269.050781 C 174.152344 301.839844 169.550781 315.011719 157.902344 332.472656 C 146.253906 349.9375 142.269531 372.613281 151.464844 389.769531 C 160.664062 406.929688 177.523438 411.21875 177.523438 411.21875 C 177.523438 411.21875 293.347656 404.171875 329.699219 369.546875 "/>
<path style=" stroke:none;fill-rule:nonzero;fill:rgb(100%,76.858521%,67.83905%);fill-opacity:1;" d="M 336.007812 366.796875 C 336.007812 366.796875 361.453125 368.9375 389.042969 391.917969 C 416.632812 414.898438 455.640625 444.851562 472.308594 455 C 449.125 485.980469 429.203125 502.222656 429.203125 502.222656 C 429.203125 502.222656 362.683594 475.5625 362.683594 476.484375 C 362.683594 477.402344 336.007812 366.796875 336.007812 366.796875 "/>
<path style=" stroke:none;fill-rule:nonzero;fill:rgb(49.798584%,11.369324%,20.779419%);fill-opacity:1;" d="M 703.972656 560.058594 C 703.972656 560.058594 794.636719 547.714844 802.703125 553.777344 C 803.714844 554.535156 803.027344 576.21875 802.761719 577.722656 C 800.910156 588.234375 770.410156 614.144531 747.007812 615.882812 C 720.261719 617.867188 428.632812 598.523438 413.226562 594.773438 C 405.925781 592.992188 401.917969 590.824219 402.066406 587.835938 C 402.152344 586.179688 400.132812 565.816406 402.921875 563.582031 C 405.707031 561.34375 418.808594 564.101562 424.597656 561.140625 C 446.605469 549.882812 459.082031 553.777344 459.082031 553.777344 L 703.972656 560.058594 "/>
<path style=" stroke:none;fill-rule:nonzero;fill:rgb(64.709473%,18.429565%,25.099182%);fill-opacity:1;" d="M 703.972656 538.117188 C 703.972656 538.117188 793.628906 546.273438 801.695312 552.332031 C 809.769531 558.394531 773.75 591.953125 747.007812 593.941406 C 720.265625 595.925781 428.632812 576.582031 413.226562 572.828125 C 397.820312 569.078125 397.085938 563.59375 419.097656 552.332031 C 441.109375 541.074219 459.082031 531.835938 459.082031 531.835938 L 703.972656 538.117188 "/>
<path style=" stroke:none;fill-rule:nonzero;fill:rgb(100%,76.858521%,67.83905%);fill-opacity:1;" d="M 762.042969 511.558594 C 762.042969 511.558594 761 521.683594 732.753906 532.683594 C 704.503906 543.679688 688 542.765625 688 542.765625 C 688 542.765625 679.382812 526.378906 686.53125 514.226562 C 693.683594 502.070312 705.304688 496.429688 705.304688 496.429688 L 756.964844 496.429688 L 762.042969 511.558594 "/>
<path style=" stroke:none;fill-rule:nonzero;fill:rgb(79.60968%,25.878906%,32.159424%);fill-opacity:1;" d="M 703.910156 503.730469 C 703.910156 503.730469 705.539062 520.144531 722.597656 522.429688 C 739.660156 524.714844 750.214844 512.40625 751.976562 494.472656 C 753.734375 476.539062 750.121094 462.828125 744.101562 461.066406 C 738.078125 459.308594 715.914062 466.871094 706.769531 487.441406 C 704.480469 492.890625 703.910156 503.730469 703.910156 503.730469 "/>
<path style=" stroke:none;fill-rule:nonzero;fill:rgb(79.60968%,25.878906%,32.159424%);fill-opacity:1;" d="M 574.414062 599.191406 C 507.296875 599.191406 492.34375 546.015625 489.40625 514.324219 L 489.191406 512.039062 C 485.464844 471.949219 476.746094 378.058594 476.746094 225.167969 L 478.863281 225.167969 C 478.863281 377.957031 487.582031 471.777344 491.304688 511.84375 L 491.515625 514.128906 C 494.386719 545.105469 508.980469 597.070312 574.414062 597.070312 C 606.242188 597.070312 624.363281 583.359375 633.960938 571.863281 C 644.382812 559.371094 647.320312 546.695312 647.347656 546.570312 L 649.414062 547.03125 C 649.296875 547.566406 646.367188 560.261719 635.652344 573.140625 C 625.761719 585.023438 607.113281 599.191406 574.414062 599.191406 "/>
<path style=" stroke:none;fill-rule:nonzero;fill:rgb(100%,76.858521%,67.83905%);fill-opacity:1;" d="M 455.0625 444.875 C 455.0625 444.875 509.355469 477.871094 539.070312 488.136719 C 568.78125 498.402344 646.914062 510.132812 684.332031 509.035156 C 686.902344 523.335938 688 542.765625 688 542.765625 C 688 542.765625 619.035156 558.53125 545.300781 546.0625 C 471.570312 533.601562 422.046875 502.4375 422.046875 502.4375 C 422.046875 502.4375 430.851562 454.40625 455.0625 444.875 "/>
<path style=" stroke:none;fill-rule:nonzero;fill:rgb(100%,100%,100%);fill-opacity:1;" d="M 561.140625 494.164062 C 561.140625 494.164062 544.390625 499.5 533.933594 511.050781 C 535.949219 513.984375 539.984375 517.101562 539.984375 517.101562 C 539.984375 517.101562 562.453125 499.960938 574.421875 496.980469 C 567.964844 495.660156 561.140625 494.164062 561.140625 494.164062 "/>
<path style=" stroke:none;fill-rule:nonzero;fill:rgb(100%,100%,100%);fill-opacity:1;" d="M 588.714844 499.636719 C 588.714844 499.636719 569.699219 508.484375 559.976562 519.484375 C 566.210938 523.703125 568.960938 525.167969 568.960938 525.167969 C 568.960938 525.167969 587.515625 506.648438 601.808594 501.792969 C 592.285156 500.25 588.714844 499.636719 588.714844 499.636719 "/>
<path style=" stroke:none;fill-rule:nonzero;fill:rgb(34.118652%,22.349548%,38.038635%);fill-opacity:1;" d="M 472.308594 526.183594 C 472.308594 526.183594 473.769531 514.859375 483.308594 494.164062 C 492.84375 473.472656 497.144531 468.730469 497.144531 468.730469 C 497.144531 468.730469 500.730469 464.855469 488.625 458.441406 C 476.523438 452.023438 472.308594 455 472.308594 455 C 472.308594 455 462.214844 469.625 454.328125 486.671875 C 446.445312 503.71875 445.316406 514.734375 445.316406 514.734375 C 445.316406 514.734375 451.40625 524.449219 472.308594 526.183594 "/>
<path style=" stroke:none;fill-rule:nonzero;fill:rgb(79.60968%,25.878906%,32.159424%);fill-opacity:1;" d="M 587.144531 515.285156 C 578.222656 515.285156 572.242188 512.167969 564.828125 508.296875 C 562.15625 506.902344 559.386719 505.460938 556.1875 503.992188 C 543.589844 498.238281 527.308594 497.496094 527.148438 497.492188 L 527.234375 495.371094 C 527.917969 495.40625 544.097656 496.140625 557.066406 502.066406 C 560.320312 503.554688 563.109375 505.011719 565.808594 506.417969 C 573.816406 510.597656 579.601562 513.617188 589.171875 513.109375 C 598.734375 512.605469 604.832031 508.984375 610.214844 505.789062 C 614.949219 502.976562 619.421875 500.320312 625.382812 500.1875 C 638.167969 499.90625 643.59375 506.851562 643.789062 507.113281 L 640.570312 506.796875 C 640.53125 506.75 637.054688 502.039062 625.429688 502.304688 C 620.023438 502.425781 615.976562 504.828125 611.292969 507.609375 C 605.703125 510.929688 599.363281 514.691406 589.289062 515.226562 C 588.550781 515.265625 587.839844 515.285156 587.144531 515.285156 "/>
<path style=" stroke:none;fill-rule:nonzero;fill:rgb(100%,76.858521%,67.83905%);fill-opacity:1;" d="M 684.328125 509.035156 C 684.328125 509.035156 691.484375 488.320312 696.617188 485.386719 C 701.75 482.453125 714.59375 484.472656 718.445312 484.472656 C 722.296875 484.472656 730 488.503906 725.964844 489.96875 C 721.929688 491.433594 709.460938 491.066406 707.257812 493.269531 C 705.054688 495.46875 701.75 515.636719 696.433594 521.867188 C 691.117188 528.097656 680.476562 522.417969 684.328125 509.035156 "/>
<path style=" stroke:none;fill-rule:nonzero;fill:rgb(100%,76.858521%,67.83905%);fill-opacity:1;" d="M 760.90625 483.792969 C 760.90625 483.792969 761.183594 479.382812 757.328125 476.773438 C 753.480469 474.160156 743.160156 468.523438 740.824219 471.683594 C 738.480469 474.847656 754.992188 483.792969 754.992188 483.792969 C 754.992188 483.792969 740.921875 477.320312 740.59375 481.308594 C 740.273438 485.292969 752.238281 490.382812 752.238281 490.382812 C 752.238281 490.382812 741.375 486.121094 742.199219 490.933594 C 743.023438 495.746094 752.789062 500.972656 752.789062 500.972656 C 752.789062 500.972656 742.058594 497.253906 743.574219 500.972656 C 745.082031 504.679688 756.230469 514.308594 760.21875 512.933594 C 764.203125 511.554688 762.691406 505.328125 762.691406 505.328125 C 762.691406 505.328125 765.859375 501.917969 764.347656 497.871094 C 762.828125 493.820312 761.042969 493.132812 761.042969 493.132812 C 761.042969 493.132812 764.066406 490.519531 763.105469 487.222656 C 762.144531 483.921875 760.90625 483.792969 760.90625 483.792969 "/>
<path style=" stroke:none;fill-rule:nonzero;fill:rgb(99.609375%,93.728638%,92.549133%);fill-opacity:1;" d="M 174.097656 407.023438 C 175.644531 406.347656 180.894531 398.757812 216.761719 389.671875 C 261.210938 391.917969 312.40625 364.546875 312.40625 364.546875 C 312.40625 364.546875 324.359375 364.035156 336.011719 366.792969 C 360.84375 402.945312 372.488281 413.363281 390.882812 421.636719 C 409.277344 429.910156 422.457031 442.472656 428.894531 465.453125 C 435.332031 488.429688 422.152344 513.25 422.152344 513.25 C 422.152344 513.25 441.566406 580.65625 456.277344 602.71875 C 470.996094 624.777344 490.613281 651.332031 490.613281 651.332031 L 303.824219 643.574219 L 174.097656 407.023438 "/>
<path style=" stroke:none;fill-rule:nonzero;fill:rgb(100%,76.858521%,67.83905%);fill-opacity:1;" d="M 248.949219 348.714844 C 248.949219 348.714844 287.429688 355.925781 294.6875 319.667969 C 301.941406 283.414062 294.6875 242.542969 294.6875 242.542969 C 294.6875 242.542969 279.1875 223.101562 267.976562 205.628906 C 264.347656 233.316406 228.734375 255.398438 228.734375 255.398438 C 228.734375 255.398438 226.425781 273.855469 235.988281 301.871094 C 245.550781 329.886719 247.628906 332.898438 248.949219 348.714844 "/>
<path style=" stroke:none;fill-rule:nonzero;fill:rgb(100%,76.858521%,67.83905%);fill-opacity:1;" d="M 216.761719 389.671875 C 216.761719 389.671875 233.722656 410.097656 274.804688 406.625 C 315.878906 403.152344 312.40625 364.542969 312.40625 364.542969 C 312.40625 364.542969 298.304688 366.382812 288.695312 366.589844 C 279.09375 366.792969 278.683594 355.148438 277.867188 341.671875 C 268.058594 342.28125 248.949219 348.714844 248.949219 348.714844 C 248.949219 348.714844 256.203125 380.273438 216.761719 389.671875 "/>
<path style=" stroke:none;fill-rule:nonzero;fill:rgb(100%,76.858521%,67.83905%);fill-opacity:1;" d="M 337.953125 510.1875 L 327.121094 494.863281 L 330.390625 438.488281 C 330.390625 438.488281 366.15625 439.101562 365.949219 445.4375 C 365.746094 451.765625 352.054688 498.136719 352.054688 498.136719 L 337.953125 510.1875 "/>
<path style=" stroke:none;fill-rule:nonzero;fill:rgb(100%,76.858521%,67.83905%);fill-opacity:1;" d="M 339.179688 450.949219 L 330.390625 438.488281 C 330.390625 438.488281 329.980469 386.195312 331.617188 384.566406 C 333.25 382.929688 336.519531 381.496094 337.542969 394.777344 C 338.5625 408.054688 337.953125 441.351562 337.953125 441.351562 L 339.179688 450.949219 "/>
<path style=" stroke:none;fill-rule:nonzero;fill:rgb(58.81958%,14.118958%,22.749329%);fill-opacity:1;" d="M 526.289062 673.378906 C 526.289062 673.378906 627.3125 659.625 636.304688 666.382812 C 637.425781 667.226562 636.660156 691.386719 636.363281 693.0625 C 634.300781 704.773438 600.316406 733.648438 574.238281 735.582031 C 544.4375 737.796875 219.492188 716.242188 202.324219 712.0625 C 194.1875 710.078125 189.722656 707.660156 189.890625 704.332031 C 189.984375 702.488281 187.734375 679.796875 190.839844 677.304688 C 193.949219 674.8125 208.546875 677.882812 214.996094 674.585938 C 239.519531 662.042969 253.417969 666.382812 253.417969 666.382812 L 526.289062 673.378906 "/>
<path style=" stroke:none;fill-rule:nonzero;fill:rgb(85.879517%,28.62854%,36.859131%);fill-opacity:1;" d="M 526.289062 648.933594 C 526.289062 648.933594 626.1875 658.019531 635.175781 664.773438 C 644.171875 671.53125 604.035156 708.921875 574.234375 711.136719 C 544.4375 713.347656 219.492188 691.796875 202.324219 687.613281 C 185.15625 683.433594 184.339844 677.320312 208.867188 664.773438 C 233.390625 652.230469 253.417969 641.9375 253.417969 641.9375 L 526.289062 648.933594 "/>
<path style=" stroke:none;fill-rule:nonzero;fill:rgb(100%,76.858521%,67.83905%);fill-opacity:1;" d="M 327.121094 494.863281 C 327.121094 494.863281 299.597656 575.753906 294.558594 575.347656 C 289.515625 574.9375 248.640625 483.015625 236.789062 455.648438 C 224.9375 428.273438 206.132812 399.679688 184.878906 403.765625 C 163.625 407.851562 150.136719 419.289062 168.121094 479.75 C 186.105469 540.214844 231.476562 612.113281 258.863281 639.078125 C 286.246094 666.039062 319.765625 668.492188 332.84375 633.355469 C 345.921875 598.222656 352.054688 498.136719 352.054688 498.136719 L 327.121094 494.863281 "/>
<path style=" stroke:none;fill-rule:nonzero;fill:rgb(93.728638%,62.748718%,52.938843%);fill-opacity:1;" d="M 278.023438 344.257812 C 278.023438 344.257812 270.96875 348.394531 248.714844 346.15625 C 249.378906 351.972656 249.441406 354.433594 249.144531 359.335938 C 268.058594 358.316406 278.4375 350.027344 278.4375 350.027344 L 278.023438 344.257812 "/>
</g>
</svg>
