<?xml version="1.0" encoding="UTF-8"?>
<svg xmlns="http://www.w3.org/2000/svg" xmlns:xlink="http://www.w3.org/1999/xlink" width="810pt" height="809.999993pt" viewBox="0 0 810 809.999993" version="1.2">
<defs>
<clipPath id="clip1">
  <path d="M 497 629 L 766 629 L 766 789.476562 L 497 789.476562 Z M 497 629 "/>
</clipPath>
<clipPath id="clip2">
  <path d="M 707 627 L 752 627 L 752 789.476562 L 707 789.476562 Z M 707 627 "/>
</clipPath>
<clipPath id="clip3">
  <path d="M 9 524 L 315 524 L 315 789.476562 L 9 789.476562 Z M 9 524 "/>
</clipPath>
</defs>
<g id="surface1">
<path style=" stroke:none;fill-rule:nonzero;fill:rgb(48.239136%,56.858826%,69.799805%);fill-opacity:1;" d="M 351.824219 257.136719 C 351.824219 257.136719 349.472656 288.386719 350.921875 310.421875 C 352.367188 332.460938 350.921875 350.160156 338.09375 355.941406 C 325.269531 361.71875 319.304688 356.863281 319.304688 356.863281 L 317.136719 367.503906 L 321.835938 372.378906 C 321.835938 372.378906 343.332031 367.351562 354.351562 356.863281 C 365.375 346.371094 359.230469 308.796875 358.144531 295.972656 C 357.0625 283.148438 356.703125 265.988281 356.703125 261.109375 C 356.703125 256.234375 351.824219 257.136719 351.824219 257.136719 "/>
<g clip-path="url(#clip1)" clip-rule="nonzero">
<path style=" stroke:none;fill-rule:nonzero;fill:rgb(79.60968%,25.878906%,32.159424%);fill-opacity:1;" d="M 527.296875 630.699219 C 527.296875 630.699219 503.929688 668.476562 499.011719 712.773438 C 494.085938 757.070312 500.652344 789.476562 500.652344 789.476562 L 626.1875 789.476562 L 624.558594 773.070312 L 632.746094 772.660156 L 636.445312 789.476562 L 764.4375 789.476562 C 764.4375 789.476562 768.539062 751.328125 755.824219 705.800781 C 743.101562 660.273438 721.769531 629.375 721.769531 629.375 L 527.296875 630.699219 "/>
</g>
<path style=" stroke:none;fill-rule:nonzero;fill:rgb(64.709473%,18.429565%,25.099182%);fill-opacity:1;" d="M 712.558594 604.34375 C 712.558594 604.34375 722.589844 627.460938 721.769531 629.375 C 720.949219 631.289062 682.113281 648.789062 612.917969 644.414062 C 543.726562 640.039062 527.300781 630.699219 527.300781 630.699219 L 540.988281 602.03125 L 712.558594 604.34375 "/>
<path style=" stroke:none;fill-rule:nonzero;fill:rgb(64.709473%,18.429565%,25.099182%);fill-opacity:1;" d="M 609.363281 642.226562 C 609.363281 642.226562 605.46875 687.136719 612.238281 719.949219 C 619.007812 752.765625 627.859375 772.902344 627.859375 772.902344 L 624.5625 773.070312 C 624.5625 773.070312 613.082031 743.125 608.25 712.773438 C 603.414062 682.421875 606.90625 642.226562 606.90625 642.226562 L 609.363281 642.226562 "/>
<g clip-path="url(#clip2)" clip-rule="nonzero">
<path style=" stroke:none;fill-rule:nonzero;fill:rgb(64.709473%,18.429565%,25.099182%);fill-opacity:1;" d="M 710.832031 627.886719 C 710.832031 627.886719 731.339844 661.640625 741.734375 704.847656 C 752.128906 748.046875 751.441406 789.476562 751.441406 789.476562 L 748.984375 789.476562 C 748.984375 789.476562 748.050781 737.035156 735.921875 695.136719 C 723.792969 653.238281 707.824219 627.886719 707.824219 627.886719 L 710.832031 627.886719 "/>
</g>
<path style=" stroke:none;fill-rule:nonzero;fill:rgb(64.709473%,18.429565%,25.099182%);fill-opacity:1;" d="M 677.671875 638.742188 C 677.671875 638.742188 679.726562 654.53125 695.3125 662.941406 C 710.898438 671.347656 726.285156 666.609375 726.285156 666.609375 L 726.285156 663.144531 C 726.285156 663.144531 709.945312 667.550781 697.058594 660.476562 C 684.167969 653.40625 680.75 638.742188 680.75 638.742188 L 677.671875 638.742188 "/>
<path style=" stroke:none;fill-rule:nonzero;fill:rgb(64.709473%,18.429565%,25.099182%);fill-opacity:1;" d="M 550.292969 635.390625 C 550.292969 635.390625 545.09375 644.6875 535.796875 649.199219 C 526.5 653.710938 516.324219 652.121094 516.324219 652.121094 L 514.929688 655.296875 C 514.929688 655.296875 525.132812 658.085938 538.53125 651.660156 C 551.933594 645.234375 554.941406 635.390625 554.941406 635.390625 L 550.292969 635.390625 "/>
<path style=" stroke:none;fill-rule:nonzero;fill:rgb(83.139038%,60.778809%,56.469727%);fill-opacity:1;" d="M 599.574219 80.355469 C 599.574219 80.355469 619.484375 54.558594 665.199219 64.09375 C 710.910156 73.625 717.925781 120.171875 715.394531 164.472656 C 712.871094 208.773438 722.125 243.546875 733.90625 262.050781 C 745.683594 280.558594 763.917969 303.550781 767.5625 324.296875 C 771.207031 345.046875 768.125 366.078125 768.125 366.078125 L 531.421875 354.582031 C 531.421875 354.582031 518.800781 334.675781 523.566406 306.914062 C 528.335938 279.15625 569 241.992188 571.246094 214.03125 C 573.492188 186.0625 567.601562 143.167969 572.367188 117.648438 C 577.132812 92.128906 599.574219 80.355469 599.574219 80.355469 "/>
<path style=" stroke:none;fill-rule:nonzero;fill:rgb(99.609375%,93.728638%,92.549133%);fill-opacity:1;" d="M 696.046875 300.746094 C 696.046875 300.746094 749.335938 328.644531 772.890625 355.5625 C 796.449219 382.480469 805.703125 439.683594 807.8125 488.46875 C 809.910156 537.261719 808.648438 585.207031 799.390625 600.765625 C 790.136719 616.328125 773.308594 616.75 761.53125 615.066406 C 749.753906 613.386719 723.253906 591.367188 713.15625 569.363281 C 712.289062 575.894531 711.195312 584.226562 711.195312 584.226562 C 711.195312 584.226562 712.3125 599.085938 713.15625 604.554688 C 703.476562 610.863281 614.4375 625.585938 540.117188 602.03125 C 544.886719 575.953125 547.410156 532.210938 545.722656 522.960938 C 544.046875 513.707031 535.910156 505.714844 535.910156 505.714844 L 530.148438 518.332031 C 530.148438 518.332031 512.914062 573.851562 487.675781 593.617188 C 462.433594 613.386719 414.054688 581.871094 365.679688 495.425781 L 368.199219 491.414062 L 387.082031 471.324219 C 387.082031 471.324219 454.859375 523.800781 462.015625 520.859375 C 469.164062 517.910156 494.824219 420.375 519.648438 368.199219 C 544.464844 316.027344 611.347656 299.625 611.347656 299.625 L 644.164062 295.417969 L 696.046875 300.746094 "/>
<path style=" stroke:none;fill-rule:nonzero;fill:rgb(100%,100%,100%);fill-opacity:1;" d="M 685.113281 285.886719 L 696.046875 300.746094 C 696.046875 300.746094 678.941406 324.578125 650.332031 336.074219 C 646.6875 314.484375 641.921875 301.027344 641.921875 301.027344 L 622.007812 330.46875 C 622.007812 330.46875 613.3125 316.445312 611.351562 299.621094 C 617.804688 292.613281 623.339844 288.898438 623.339844 288.898438 L 685.113281 285.886719 "/>
<path style=" stroke:none;fill-rule:nonzero;fill:rgb(100%,76.858521%,67.83905%);fill-opacity:1;" d="M 287.925781 593.757812 C 287.925781 593.757812 297.390625 576.234375 304.332031 572.871094 C 311.269531 569.503906 317.160156 572.449219 332.515625 570.976562 C 347.871094 569.503906 357.757812 567.613281 355.652344 573.5 C 353.550781 579.386719 339.035156 589.0625 330.203125 590.953125 C 321.367188 592.847656 312.53125 596.632812 311.0625 597.894531 C 309.589844 599.15625 309.589844 599.15625 309.589844 599.15625 L 287.925781 593.757812 "/>
<g clip-path="url(#clip3)" clip-rule="nonzero">
<path style=" stroke:none;fill-rule:nonzero;fill:rgb(99.609375%,93.728638%,92.549133%);fill-opacity:1;" d="M 55.78125 535.71875 C 55.78125 535.71875 24.652344 547.773438 14.835938 570.765625 C 5.019531 593.757812 11.472656 643.667969 14.835938 671.148438 C 18.203125 698.628906 20.445312 789.476562 20.445312 789.476562 L 214.515625 789.476562 L 210.128906 696.363281 L 210.128906 672.832031 C 210.128906 672.832031 229.378906 703.953125 253.78125 707.320312 C 278.179688 710.683594 292.761719 684.609375 300.332031 662.597656 C 307.90625 640.585938 314.917969 599.15625 314.917969 599.15625 L 282.945312 591.515625 C 282.945312 591.515625 263.59375 641.988281 256.863281 642.269531 C 250.132812 642.546875 237.792969 616.472656 237.792969 616.472656 L 215.097656 591.363281 C 215.097656 591.363281 197.96875 551.417969 176.65625 538.519531 C 155.339844 525.621094 123.371094 524.78125 123.371094 524.78125 L 55.78125 535.71875 "/>
</g>
<path style=" stroke:none;fill-rule:nonzero;fill:rgb(100%,76.858521%,67.83905%);fill-opacity:1;" d="M 19.464844 438.417969 C 19.464844 438.417969 37.132812 481.742188 60.6875 497.726562 C 84.246094 513.707031 121.6875 508.660156 136.410156 490.570312 C 151.136719 472.488281 144.824219 417.390625 130.101562 380.378906 C 115.378906 343.367188 83.40625 328.226562 41.757812 342.105469 C 0.113281 355.984375 7.152344 413.847656 19.464844 438.417969 "/>
<path style=" stroke:none;fill-rule:nonzero;fill:rgb(100%,76.858521%,67.83905%);fill-opacity:1;" d="M 42.320312 459.167969 L 28.648438 457.425781 C 28.648438 457.425781 13.714844 453.277344 12.3125 463.65625 C 10.910156 474.027344 27.175781 492.257812 41.011719 477.328125 C 49.890625 470.386719 42.320312 459.167969 42.320312 459.167969 "/>
<path style=" stroke:none;fill-rule:nonzero;fill:rgb(100%,76.858521%,67.83905%);fill-opacity:1;" d="M 55.78125 535.71875 C 55.78125 535.71875 70.367188 550.578125 97.847656 550.019531 C 125.332031 549.457031 123.371094 524.78125 123.371094 524.78125 C 123.371094 524.78125 116.640625 523.097656 113.835938 517.769531 C 111.03125 512.441406 110.46875 500.105469 110.46875 500.105469 L 57.570312 495.421875 C 57.570312 495.421875 62.792969 524.5 55.78125 535.71875 "/>
<path style=" stroke:none;fill-rule:nonzero;fill:rgb(93.728638%,62.748718%,52.938843%);fill-opacity:1;" d="M 58.988281 524.933594 C 58.988281 524.933594 94.53125 529.621094 111.894531 511.707031 C 111.476562 509.472656 110.90625 505.328125 110.90625 505.328125 C 110.90625 505.328125 101.355469 508.800781 83.96875 505.996094 C 66.578125 503.191406 57.570312 495.421875 57.570312 495.421875 C 57.570312 495.421875 59.691406 512 58.988281 524.933594 "/>
<path style=" stroke:none;fill-rule:nonzero;fill:rgb(100%,76.858521%,67.83905%);fill-opacity:1;" d="M 208.554688 599.714844 C 208.554688 599.714844 218.023438 586.046875 224.964844 582.683594 C 231.902344 579.316406 237.792969 582.261719 253.144531 580.789062 C 268.503906 579.316406 278.386719 577.425781 276.285156 583.3125 C 274.179688 589.203125 259.667969 598.875 250.835938 600.765625 C 242 602.664062 233.167969 606.445312 231.695312 607.707031 C 230.222656 608.96875 228.328125 611.703125 228.328125 611.703125 L 208.554688 599.714844 "/>
<path style=" stroke:none;fill-rule:nonzero;fill:rgb(100%,76.858521%,67.83905%);fill-opacity:1;" d="M 583.308594 151.851562 C 583.308594 151.851562 581.066406 207.089844 586.953125 233.171875 C 592.84375 259.246094 614.71875 275.226562 645.289062 265.972656 C 675.855469 256.722656 687.355469 223.355469 688.199219 180.175781 C 662.117188 166.433594 623.972656 168.394531 606.027344 115.121094 C 597.050781 140.636719 583.308594 151.851562 583.308594 151.851562 "/>
<path style=" stroke:none;fill-rule:nonzero;fill:rgb(100%,76.858521%,67.83905%);fill-opacity:1;" d="M 623.339844 288.898438 C 623.339844 288.898438 648.652344 301.023438 685.113281 285.882812 C 683.425781 254.761719 686.597656 202.894531 686.597656 202.894531 L 624.535156 265.972656 L 623.339844 288.898438 "/>
<path style=" stroke:none;fill-rule:nonzero;fill:rgb(93.728638%,62.748718%,52.938843%);fill-opacity:1;" d="M 623.703125 281.941406 C 623.703125 281.941406 643.324219 283.429688 662.886719 273.125 C 682.445312 262.820312 684.796875 248.195312 684.796875 248.195312 L 685.09375 236.742188 C 685.09375 236.742188 669.007812 269.230469 624.402344 268.445312 C 624.050781 275.234375 623.703125 281.941406 623.703125 281.941406 "/>
<path style=" stroke:none;fill-rule:nonzero;fill:rgb(100%,76.858521%,67.83905%);fill-opacity:1;" d="M 694.273438 458.546875 C 694.273438 458.546875 699.484375 440.40625 699.957031 429.480469 C 700.429688 418.558594 700.195312 405.226562 700.195312 399.761719 C 700.195312 394.296875 697.351562 397.796875 695.460938 404.789062 C 693.566406 411.78125 691.195312 424.019531 689.777344 423.800781 C 688.359375 423.582031 690.488281 404.570312 691.195312 392.988281 C 691.910156 381.40625 693.566406 369.605469 690.488281 370.914062 C 687.410156 372.230469 685.992188 387.089844 685.992188 385.777344 C 685.992188 384.464844 685.515625 366.765625 683.621094 368.296875 C 681.726562 369.824219 678.410156 383.15625 678.410156 383.15625 C 678.410156 383.15625 678.175781 370.261719 675.570312 372.230469 C 672.96875 374.195312 670.363281 391.675781 670.363281 391.675781 C 670.363281 391.675781 668.46875 380.09375 666.097656 384.464844 C 663.734375 388.835938 661.128906 419.648438 662.074219 439.972656 C 663.019531 460.292969 672.496094 473.1875 672.496094 473.1875 C 672.496094 473.1875 691.398438 469.902344 694.273438 458.546875 "/>
<path style=" stroke:none;fill-rule:nonzero;fill:rgb(100%,76.858521%,67.83905%);fill-opacity:1;" d="M 387.082031 471.324219 C 387.082031 471.324219 365.679688 459.027344 353.058594 459.027344 C 340.441406 459.027344 316.460938 469.617188 308.046875 469.792969 C 299.632812 469.964844 265.136719 463.730469 268.503906 469.792969 C 271.867188 475.851562 299.632812 491.414062 313.515625 491.414062 C 327.398438 491.414062 349.976562 486.367188 355.933594 487.207031 C 361.890625 488.046875 368.203125 491.414062 368.203125 491.414062 C 368.203125 491.414062 382.03125 479.171875 387.082031 471.324219 "/>
<path style=" stroke:none;fill-rule:nonzero;fill:rgb(93.328857%,83.529663%,83.918762%);fill-opacity:1;" d="M 208.554688 599.714844 L 204.351562 598.035156 C 204.351562 598.035156 161.230469 650.960938 148.328125 656.007812 C 135.429688 661.050781 82.144531 595.496094 82.144531 595.496094 C 82.144531 595.496094 139.285156 649.277344 145.351562 648.71875 C 151.414062 648.15625 184.507812 607.777344 184.507812 607.777344 L 174.132812 569.472656 L 190.957031 604.414062 L 202.175781 593.480469 L 210.128906 597.550781 L 208.554688 599.714844 "/>
<path style=" stroke:none;fill-rule:nonzero;fill:rgb(93.328857%,83.529663%,83.918762%);fill-opacity:1;" d="M 228.328125 611.703125 L 234.429688 616.75 C 234.429688 616.75 200.492188 690.773438 173.570312 713.765625 C 146.648438 736.761719 112.992188 731.152344 80.742188 697.222656 C 48.488281 663.296875 17.359375 623.757812 17.359375 623.757812 C 17.359375 623.757812 70.367188 703.957031 100.09375 727.648438 C 129.820312 751.34375 158.144531 746.855469 176.375 733.394531 C 194.605469 719.9375 210.128906 696.363281 210.128906 696.363281 L 210.128906 672.832031 L 237.792969 616.472656 L 230.253906 609.207031 L 228.328125 611.703125 "/>
<path style=" stroke:none;fill-rule:nonzero;fill:rgb(93.328857%,83.529663%,83.918762%);fill-opacity:1;" d="M 700.253906 459.449219 L 766.722656 543.007812 L 749.617188 513.285156 L 738.679688 429.726562 L 736.710938 497.582031 C 736.710938 497.582031 705.867188 457.207031 704.742188 456.644531 C 703.621094 456.085938 700.253906 459.449219 700.253906 459.449219 "/>
<path style=" stroke:none;fill-rule:nonzero;fill:rgb(93.328857%,83.529663%,83.918762%);fill-opacity:1;" d="M 671.085938 477.675781 L 713.152344 569.363281 L 711.191406 584.226562 C 711.191406 584.226562 670.527344 490.855469 671.085938 477.675781 "/>
<path style=" stroke:none;fill-rule:nonzero;fill:rgb(93.328857%,83.529663%,83.918762%);fill-opacity:1;" d="M 540.117188 403.929688 C 540.117188 403.929688 519.363281 432.25 520.207031 457.207031 C 521.050781 482.160156 535.910156 505.714844 535.910156 505.714844 L 530.148438 518.332031 C 530.148438 518.332031 512.074219 480.199219 514.878906 454.964844 C 517.683594 429.726562 535.632812 406.734375 540.117188 403.929688 "/>
<path style=" stroke:none;fill-rule:nonzero;fill:rgb(72.549438%,41.958618%,41.178894%);fill-opacity:1;" d="M 284.617188 382.132812 C 299.417969 418.589844 332.542969 415.738281 336.234375 414.652344 C 341.285156 406.6875 340.96875 396.621094 338.214844 392.488281 C 333.878906 385.988281 323.761719 384.78125 324.484375 382.613281 C 325.207031 380.449219 330.988281 377.800781 328.578125 372.257812 C 326.171875 366.71875 319.183594 368.164062 320.144531 365.996094 C 321.109375 363.832031 327.132812 359.011719 324.242188 354.4375 C 321.351562 349.859375 315.570312 345.765625 318.703125 344.082031 C 318.703125 344.082031 317.738281 340.707031 321.714844 338.539062 C 325.6875 336.375 336.527344 327.460938 332.433594 311.082031 C 328.621094 295.835938 302.878906 294.164062 286.128906 307.816406 C 285.914062 308.3125 269.902344 345.886719 284.617188 382.132812 "/>
<path style=" stroke:none;fill-rule:nonzero;fill:rgb(66.668701%,34.899902%,34.899902%);fill-opacity:1;" d="M 273.898438 392.972656 C 281.367188 416.089844 302.5625 429.339844 321.714844 424.761719 C 328.695312 423.09375 333.34375 419.21875 336.234375 414.652344 C 332.542969 415.738281 299.417969 418.589844 284.617188 382.132812 C 269.902344 345.886719 285.914062 308.3125 286.128906 307.816406 C 284.890625 308.824219 283.695312 309.90625 282.566406 311.082031 C 266.1875 328.183594 266.429688 369.851562 273.898438 392.972656 "/>
</g>
</svg>
